#!OML:ASF F:\VICON\USERDATA\INSTALL\rory3\rory3.ASF
:FULLY-SPECIFIED
:DEGREES
118
root 8.61486 17.4815 -19.2117 -186.356 -5.86737 175.453
lowerback 13.6036 -1.45686 -8.49624
upperback 1.63234 -3.3739 0.596131
thorax -5.37842 -1.56857 6.04185
lowerneck -20.3284 -2.41257 -9.60856
upperneck 33.3103 0.546956 4.38806
head 15.0323 0.350091 3.80607
rclavicle -2.27857e-014 1.70955e-014
rhumerus -48.9784 -25.3837 -65.7529
rradius 23.6044
rwrist 13.4497
rhand -13.63 5.04774
rfingers 7.12502
rthumb 12.4859 -24.5593
lclavicle -2.27857e-014 1.70955e-014
lhumerus -24.3877 2.30569 87.5588
lradius 34.6426
lwrist -4.32957
lhand -17.4723 26.4935
lfingers 7.12502
lthumb 8.77956 56.2909
rfemur -20.8131 1.90117 9.75023
rtibia 22.7177
rfoot 4.85948 -10.4253
rtoes 21.1716
lfemur 11.2966 -4.24652 -26.2567
ltibia 22.9389
lfoot -15.6626 -6.43914
ltoes -20.2284
119
root 8.5816 17.4519 -19.1055 -186.369 -5.8279 175.668
lowerback 13.5683 -1.45257 -8.23363
upperback 1.66998 -3.32373 0.619665
thorax -5.33993 -1.5528 5.90698
lowerneck -20.305 -2.4417 -9.65389
upperneck 33.2447 0.505524 4.39122
head 15.0007 0.325525 3.80333
rclavicle -7.51655e-015 7.95139e-016
rhumerus -48.8786 -25.7663 -65.6922
rradius 23.746
rwrist 13.1741
rhand -13.7744 5.24908
rfingers 7.12502
rthumb 12.3466 -24.3664
lclavicle -7.51655e-015 7.95139e-016
lhumerus -24.4343 2.16951 87.5896
lradius 34.4523
lwrist -4.26377
lhand -17.2995 26.7691
lfingers 7.12502
lthumb 8.94635 56.5594
rfemur -20.8644 1.65667 9.97129
rtibia 22.0108
rfoot 4.47865 -10.8938
rtoes 14.1134
lfemur 10.8531 -4.14925 -26.1129
ltibia 23.0812
lfoot -15.8221 -6.48065
ltoes -19.6352
120
root 8.54802 17.4924 -19.0013 -186.354 -5.78905 175.864
lowerback 13.4306 -1.42386 -8.06323
upperback 1.76081 -3.24542 0.66546
thorax -5.18569 -1.52981 5.83598
lowerneck -20.4251 -2.5272 -9.65893
upperneck 33.2317 0.398178 4.33549
head 15.0333 0.265519 3.76106
rclavicle 2.96065e-014 9.54166e-015
rhumerus -48.5806 -26.0919 -65.719
rradius 23.8072
rwrist 12.9665
rhand -13.7439 5.38252
rfingers 7.12502
rthumb 12.3761 -24.2311
lclavicle 2.96065e-014 9.54166e-015
lhumerus -24.3013 2.11459 87.6147
lradius 34.1084
lwrist -4.41098
lhand -17.2125 27.0176
lfingers 7.12502
lthumb 9.03027 56.8043
rfemur -20.3502 1.14675 10.2061
rtibia 21.532
rfoot 2.63116 -11.5856
rtoes 13.9713
lfemur 10.4368 -4.1015 -26.0059
ltibia 23.1009
lfoot -15.8166 -6.50928
ltoes -18.8906
121
root 8.51838 17.4847 -18.9028 -186.409 -5.66548 176.012
lowerback 13.4093 -1.31536 -7.90053
upperback 1.81283 -3.07644 0.676508
thorax -5.15272 -1.45441 5.72592
lowerneck -20.4022 -2.61928 -9.7015
upperneck 33.1827 0.26203 4.34916
head 15.0188 0.203419 3.74643
rclavicle -8.75895e-015 1.03368e-014
rhumerus -48.3572 -26.3719 -65.786
rradius 23.8331
rwrist 12.6423
rhand -13.9379 5.36062
rfingers 7.12502
rthumb 12.189 -24.2642
lclavicle -8.75895e-015 1.03368e-014
lhumerus -24.2596 2.12777 87.6106
lradius 33.6801
lwrist -4.93272
lhand -17.087 26.7472
lfingers 7.12502
lthumb 9.15141 56.5286
rfemur -20.4097 0.997083 10.3042
rtibia 21.0552
rfoot 2.65376 -12.1285
rtoes 10.1898
lfemur 10.0704 -3.93117 -25.9379
ltibia 23.2601
lfoot -15.9245 -6.47469
ltoes -18.5191
122
root 8.48656 17.5077 -18.8045 -186.423 -5.60292 175.93
lowerback 13.4337 -1.22793 -7.9498
upperback 1.78667 -2.97346 0.617568
thorax -5.21079 -1.39921 5.67649
lowerneck -20.2778 -2.68498 -9.73493
upperneck 33.1416 0.180115 4.31491
head 14.9806 0.162811 3.71969
rclavicle 2.01394e-014 3.18055e-015
rhumerus -48.2489 -26.3502 -65.9862
rradius 23.9827
rwrist 12.2355
rhand -14.2601 5.39142
rfingers 7.12502
rthumb 11.8783 -24.2516
lclavicle 2.01394e-014 3.18055e-015
lhumerus -24.4659 2.35598 87.5721
lradius 33.4027
lwrist -5.40484
lhand -17.3128 26.4118
lfingers 7.12502
lthumb 8.93351 56.2027
rfemur -20.4494 -0.000970559 10.3754
rtibia 21.2382
rfoot 1.923 -11.8452
rtoes 7.14247
lfemur 9.81507 -3.71462 -26.1295
ltibia 23.1126
lfoot -15.7583 -6.44513
ltoes -18.8215
123
root 8.45967 17.513 -18.7063 -186.358 -5.55258 175.772
lowerback 13.4184 -1.16572 -8.16502
upperback 1.70494 -2.92086 0.579231
thorax -5.28897 -1.36047 5.75062
lowerneck -20.1889 -2.70394 -9.74951
upperneck 33.1961 0.18313 4.27853
head 14.9869 0.16291 3.71052
rclavicle 4.52111e-014 -6.75868e-015
rhumerus -48.0892 -25.8908 -66.3938
rradius 24.2582
rwrist 11.7221
rhand -14.2812 5.44425
rfingers 7.12502
rthumb 11.858 -24.2
lclavicle 4.52111e-014 -6.75868e-015
lhumerus -24.7044 2.52726 87.5386
lradius 33.0587
lwrist -5.70059
lhand -17.5818 26.2763
lfingers 7.12502
lthumb 8.6739 56.0781
rfemur -20.7118 -0.712413 10.2991
rtibia 21.52
rfoot 1.41101 -11.8067
rtoes 3.79182
lfemur 9.44708 -3.47209 -26.3803
ltibia 23.0005
lfoot -15.5205 -6.38389
ltoes -19.3162
124
root 8.436 17.5275 -18.61 -186.313 -5.22135 175.832
lowerback 13.2765 -1.03073 -8.17161
upperback 1.71993 -2.72695 0.597274
thorax -5.22328 -1.26817 5.73485
lowerneck -20.3033 -2.74618 -9.87822
upperneck 33.3077 0.142163 4.42288
head 15.0693 0.149669 3.79459
rclavicle 1.5207e-014 -2.54444e-014
rhumerus -47.7173 -25.6352 -66.7955
rradius 24.4107
rwrist 11.4303
rhand -14.0823 5.77895
rfingers 7.12502
rthumb 12.0497 -23.8541
lclavicle 1.5207e-014 -2.54444e-014
lhumerus -24.7657 2.65369 87.4776
lradius 32.6379
lwrist -5.93165
lhand -17.4768 26.2537
lfingers 7.12502
lthumb 8.77525 56.0513
rfemur -20.9354 -1.51176 10.6835
rtibia 22.057
rfoot 0.886301 -11.3986
rtoes 0.08815
lfemur 9.0709 -3.082 -26.3697
ltibia 22.9148
lfoot -15.2833 -6.28199
ltoes -19.2859
125
root 8.41115 17.5875 -18.5122 -186.294 -4.83148 176.133
lowerback 13.1902 -0.87264 -7.85497
upperback 1.70975 -2.45881 0.622003
thorax -5.23987 -1.1396 5.53471
lowerneck -20.442 -2.84043 -9.98645
upperneck 33.507 0.0130691 4.62447
head 15.2075 0.112407 3.89006
rclavicle -7.54139e-015 7.95139e-016
rhumerus -47.4555 -25.3282 -67.3412
rradius 24.7748
rwrist 11.0836
rhand -13.7615 5.79561
rfingers 7.12502
rthumb 12.3591 -23.8191
lclavicle -7.54139e-015 7.95139e-016
lhumerus -24.9682 2.75379 87.3477
lradius 32.3981
lwrist -6.09372
lhand -17.1396 26.4868
lfingers 7.12502
lthumb 9.10064 56.2705
rfemur -20.8512 -1.74503 11.0813
rtibia 22.8237
rfoot -0.807969 -11.479
rtoes 5.79146
lfemur 8.6938 -2.71375 -26.1016
ltibia 22.8566
lfoot -14.9481 -6.30933
ltoes -18.3731
126
root 8.39287 17.5954 -18.4192 -186.334 -4.62245 176.379
lowerback 13.2479 -0.797784 -7.66045
upperback 1.60998 -2.33065 0.640404
thorax -5.40405 -1.06605 5.42816
lowerneck -20.3913 -2.86365 -9.8514
upperneck 33.6897 0.0189025 4.484
head 15.2827 0.121695 3.81966
rclavicle -2.71962e-014 3.97569e-015
rhumerus -47.4001 -24.9003 -67.8139
rradius 25.2323
rwrist 10.9816
rhand -13.44 5.37792
rfingers 7.12502
rthumb 12.6691 -24.2178
lclavicle -2.71962e-014 3.97569e-015
lhumerus -25.3966 2.87474 87.1467
lradius 32.1596
lwrist -6.23809
lhand -16.9907 26.6734
lfingers 7.12502
lthumb 9.24432 56.4507
rfemur -21.2619 -2.51518 11.6271
rtibia 23.7433
rfoot -0.344228 -11.0698
rtoes -0.400357
lfemur 8.38989 -2.4361 -25.8678
ltibia 22.8467
lfoot -14.6858 -6.37401
ltoes -17.7161
127
root 8.37429 17.6263 -18.3253 -186.369 -4.43363 176.499
lowerback 13.2337 -0.710076 -7.63388
upperback 1.5757 -2.20605 0.658073
thorax -5.45122 -1.0006 5.41164
lowerneck -20.2292 -2.87765 -9.89001
upperneck 33.6454 -0.00626879 4.5062
head 15.2274 0.114067 3.82761
rclavicle -2.40157e-014 -3.97569e-016
rhumerus -47.169 -24.6754 -68.1785
rradius 25.533
rwrist 11.1276
rhand -13.3548 4.76807
rfingers 7.12502
rthumb 12.7511 -24.8226
lclavicle -2.40157e-014 -3.97569e-016
lhumerus -25.6981 3.15714 86.9458
lradius 31.8228
lwrist -6.57621
lhand -17.2032 26.482
lfingers 7.12502
lthumb 9.03928 56.2683
rfemur -21.3902 -3.22884 11.9946
rtibia 24.9112
rfoot -0.826114 -10.6928
rtoes -1.70462
lfemur 8.09623 -2.10484 -25.7319
ltibia 22.7869
lfoot -14.3117 -6.519
ltoes -17.0237
128
root 8.35796 17.6473 -18.2308 -186.391 -4.19082 176.523
lowerback 13.267 -0.571417 -7.64692
upperback 1.52322 -2.02843 0.617151
thorax -5.55296 -0.906005 5.34822
lowerneck -19.9507 -2.91816 -10.0475
upperneck 33.5121 -0.116074 4.71254
head 15.1116 0.082378 3.91304
rclavicle 6.8705e-015 3.57812e-015
rhumerus -46.8481 -24.6396 -68.4902
rradius 25.5652
rwrist 11.3654
rhand -13.3889 4.42928
rfingers 7.12502
rthumb 12.7183 -25.1634
lclavicle 6.8705e-015 3.57812e-015
lhumerus -26.0252 3.40699 86.6954
lradius 31.569
lwrist -7.03555
lhand -17.076 26.6082
lfingers 7.12502
lthumb 9.16198 56.3892
rfemur -21.606 -3.83755 12.2289
rtibia 26.071
rfoot -1.05123 -10.3999
rtoes -2.06575
lfemur 7.69106 -1.73122 -25.695
ltibia 22.9415
lfoot -13.8819 -6.76128
ltoes -15.5849
129
root 8.34478 17.6712 -18.1373 -186.432 -3.99015 176.486
lowerback 13.3211 -0.424282 -7.69418
upperback 1.48 -1.85203 0.518678
thorax -5.65705 -0.813117 5.24283
lowerneck -19.7901 -2.96783 -10.0369
upperneck 33.4361 -0.235527 4.77351
head 15.0505 0.0453134 3.90999
rclavicle 2.20651e-014 -1.31198e-014
rhumerus -46.5403 -24.5936 -68.8498
rradius 25.521
rwrist 11.5711
rhand -13.5244 4.85189
rfingers 7.12502
rthumb 12.5877 -24.7489
lclavicle 2.20651e-014 -1.31198e-014
lhumerus -26.2846 3.60381 86.3772
lradius 31.218
lwrist -7.4112
lhand -16.5395 27.096
lfingers 7.12502
lthumb 9.67966 56.8536
rfemur -21.8971 -4.34745 12.4017
rtibia 27.6293
rfoot -1.32368 -10.298
rtoes -2.74039
lfemur 7.36493 -1.44481 -25.7256
ltibia 22.9641
lfoot -13.1931 -7.17728
ltoes -12.6659
130
root 8.3325 17.6992 -18.0452 -186.523 -3.85065 176.348
lowerback 13.3433 -0.292896 -7.88709
upperback 1.53423 -1.71923 0.430025
thorax -5.62857 -0.750804 5.23467
lowerneck -19.9733 -3.03965 -10.0198
upperneck 33.5198 -0.335161 4.78666
head 15.1417 0.0036437 3.90115
rclavicle -4.87022e-015 7.95139e-016
rhumerus -46.0293 -24.1167 -69.5321
rradius 25.7026
rwrist 11.4387
rhand -13.7649 5.64599
rfingers 7.12502
rthumb 12.3558 -23.9689
lclavicle -4.87022e-015 7.95139e-016
lhumerus -26.4844 4.00865 86.1074
lradius 30.8515
lwrist -7.3096
lhand -16.4835 27.1405
lfingers 7.12502
lthumb 9.73368 56.8956
rfemur -22.0999 -4.91866 12.4685
rtibia 29.3572
rfoot -1.62906 -10.1694
rtoes -4.84673
lfemur 7.0896 -1.15801 -25.8562
ltibia 22.9613
lfoot -12.5181 -7.55299
ltoes -10.9674
